<svg width="32" height="32" fill="none" xmlns="http://www.w3.org/2000/svg"><path d="M28.333 0H16.667v15.333H32V3.667A3.666 3.666 0 0028.333 0zm-.666 8.667h-6a1 1 0 010-2h6a1 1 0 010 2zM0 3.667A3.666 3.666 0 013.667 0h11.666v15.333H0V3.667zM8.333 9h1.334a1 1 0 000-2H8.333V5.667a1 1 0 00-2 0V7H5a1 1 0 000 2h1.333v1.333a1 1 0 002 0V9zM0 28.333V16.667h15.333V32H3.667A3.666 3.666 0 010 28.333zm10.04-1.625a1 1 0 000-1.415l-.957-.961.96-.96a1 1 0 00-1.415-1.415l-.96.96-.96-.96a1 1 0 00-1.415 1.415l.96.96-.96.96a1 1 0 001.414 1.415l.96-.96.96.96a.996.996 0 001.413.001zM16.667 32V16.667H32v11.666A3.666 3.666 0 0128.333 32H16.667zm4.666-4.667h6a1 1 0 000-2h-6a1 1 0 000 2zm0-4h6a1 1 0 000-2h-6a1 1 0 000 2z" opacity=".5" fill-rule="evenodd" clip-rule="evenodd" fill="#fff"/></svg>