<svg width="42" height="97" fill="none" xmlns="http://www.w3.org/2000/svg"><path d="M1.5 56l.993-.116L1.5 56zM23 44.5l-.725-.689.725.689zM42 6L31.687.807l.659 11.528L42 6zm-1 89c-.625 0-1.673-.237-3.108-.78-1.407-.53-3.099-1.322-4.977-2.348-3.754-2.051-8.2-5.014-12.527-8.639-8.699-7.29-16.696-17.076-17.895-27.349l-1.986.232c1.29 11.059 9.793 21.272 18.597 28.65 4.425 3.708 8.98 6.746 12.852 8.861 1.936 1.058 3.714 1.892 5.23 2.465C38.672 96.654 40 97 41 97v-2zM2.493 55.884c-.854-7.322.627-12.123 3.009-15.121 2.383-3 5.78-4.34 9.051-4.514 3.31-.178 6.326.841 7.918 2.339.781.734 1.17 1.531 1.19 2.329.019.795-.325 1.778-1.386 2.894l1.45 1.378c1.314-1.384 1.97-2.854 1.935-4.32-.035-1.465-.756-2.738-1.819-3.738-2.095-1.97-5.703-3.077-9.395-2.88-3.729.2-7.706 1.737-10.51 5.268C1.13 43.052-.39 48.438.506 56.116l1.987-.232zm19.782-12.073c-.21.221-.363.266-.456.274-.104.009-.285-.017-.558-.19-.578-.37-1.294-1.233-2.006-2.621-1.4-2.733-2.54-7.023-2.67-11.681-.131-4.654.75-9.568 3.278-13.608 2.508-4.008 6.686-7.237 13.336-8.489l-.37-1.965c-7.172 1.35-11.843 4.89-14.661 9.393-2.798 4.472-3.72 9.81-3.583 14.725.137 4.91 1.334 9.5 2.89 12.537.766 1.495 1.683 2.739 2.71 3.394.53.338 1.145.555 1.807.497.674-.058 1.258-.389 1.733-.888l-1.45-1.378z" fill="#F26040"/></svg>