<svg width="80" height="80" fill="none" xmlns="http://www.w3.org/2000/svg"><g filter="url(#filter0_d)"><rect x="15" y="9" width="50" height="50" rx="25" fill="#fff"/></g><path d="M40.004 18h-.008C31.174 18 24 25.176 24 34c0 3.5 1.128 6.744 3.046 9.378l-1.994 5.944 6.15-1.966A15.862 15.862 0 0040.004 50C48.826 50 56 42.822 56 34s-7.174-16-15.996-16z" fill="#4CAF50"/><path d="M49.314 40.594c-.386 1.09-1.918 1.994-3.14 2.258-.836.178-1.928.32-5.604-1.204-4.702-1.948-7.73-6.726-7.966-7.036-.226-.31-1.9-2.53-1.9-4.826s1.166-3.414 1.636-3.894c.386-.394 1.024-.574 1.636-.574.198 0 .376.01.536.018.47.02.706.048 1.016.79.386.93 1.326 3.226 1.438 3.462.114.236.228.556.068.866-.15.32-.282.462-.518.734-.236.272-.46.48-.696.772-.216.254-.46.526-.188.996.272.46 1.212 1.994 2.596 3.226 1.786 1.59 3.234 2.098 3.752 2.314.386.16.846.122 1.128-.178.358-.386.8-1.026 1.25-1.656.32-.452.724-.508 1.148-.348.432.15 2.718 1.28 3.188 1.514.47.236.78.348.894.546.112.198.112 1.128-.274 2.22z" fill="#FAFAFA"/><defs><filter id="filter0_d" x="0" y="0" width="80" height="80" filterUnits="userSpaceOnUse" color-interpolation-filters="sRGB"><feFlood flood-opacity="0" result="BackgroundImageFix"/><feColorMatrix in="SourceAlpha" values="0 0 0 0 0 0 0 0 0 0 0 0 0 0 0 0 0 0 127 0"/><feOffset dy="6"/><feGaussianBlur stdDeviation="7.5"/><feColorMatrix values="0 0 0 0 0.765553 0 0 0 0 0.765553 0 0 0 0 0.765553 0 0 0 0.4 0"/><feBlend in2="BackgroundImageFix" result="effect1_dropShadow"/><feBlend in="SourceGraphic" in2="effect1_dropShadow" result="shape"/></filter></defs></svg>