<svg width="48" height="48" fill="none" xmlns="http://www.w3.org/2000/svg"><path d="M5.597 27.21h3.199v5.598a.8.8 0 001.364.565l6.163-6.163h1.268v-1.599h-1.599a.8.8 0 00-.565.234l-5.032 5.032v-4.466a.8.8 0 00-.8-.8H5.597A4.003 4.003 0 011.6 21.613V5.621a4.003 4.003 0 013.998-3.998h25.587a4.003 4.003 0 013.998 3.998v11.994h1.6V5.621A5.604 5.604 0 0031.184.024H5.597A5.603 5.603 0 000 5.621v15.992a5.603 5.603 0 005.597 5.597z" fill="#31B045"/><path d="M42.379 19.214H24.788a5.604 5.604 0 00-5.598 5.598v11.194a5.604 5.604 0 005.598 5.597h8.464l6.162 6.163a.8.8 0 001.365-.566v-5.597h1.6a5.604 5.604 0 005.597-5.597V24.81a5.604 5.604 0 00-5.597-5.597zm3.998 16.792a4.003 4.003 0 01-3.998 3.998h-2.4a.8.8 0 00-.799.8v4.466l-5.032-5.032a.8.8 0 00-.565-.234h-8.795a4.003 4.003 0 01-3.999-3.998V24.81a4.003 4.003 0 013.998-3.997H42.38a4.002 4.002 0 013.997 3.997v11.195zM6.397 6.421h15.992v1.6H6.397v-1.6zm19.19 0h4.798v1.6h-4.798v-1.6zm-19.19 4.798h23.988v1.599H6.397v-1.6zm11.194 4.797h12.794v1.6H17.59v-1.6zm-11.194 0h7.996v1.6H6.397v-1.6zm0 4.798H17.59v1.599H6.397v-1.6z" fill="#31B045"/><path d="M23.988 24.811h11.194v1.6H23.988v-1.6zm14.392 0h4.798v1.6h-4.797v-1.6zM23.988 29.61h19.19v1.598h-19.19V29.61zm0 4.797h19.19v1.599h-19.19v-1.6z" fill="#31B045"/></svg>