<svg width="48" height="48" fill="none" xmlns="http://www.w3.org/2000/svg"><path d="M32.27 25.946l-4.086-1.816a.8.8 0 01-.475-.731v-1.122a5.954 5.954 0 002.255-4.665v-1.58c.452-.25.752-.732.752-1.273v-.153a5.97 5.97 0 00-5.964-5.964h-1.503a5.97 5.97 0 00-5.964 5.964v1.39c0 .476.205.906.561 1.182.06.047.124.088.19.123v.31c0 1.888.883 3.572 2.255 4.666v1.122a.8.8 0 01-.475.73l-4.086 1.817a3.712 3.712 0 00-2.203 3.389v9.32a.703.703 0 001.407 0v-9.32c0-.081.006-.162.014-.242l1.883 1.883c.293.293.454.683.454 1.097v6.581a.703.703 0 101.406 0v-6.581c0-.79-.307-1.533-.866-2.091l-2.244-2.245c.202-.21.444-.384.72-.506l4.017-1.786 2.98 2.98v10.23a.703.703 0 001.405 0v-10.23l2.98-2.98 4.016 1.786c.276.122.519.296.721.506l-2.244 2.245a2.938 2.938 0 00-.867 2.091v6.581a.703.703 0 101.407 0v-6.581c0-.414.161-.804.454-1.097l1.883-1.883c.008.08.014.16.014.242v9.32a.703.703 0 001.406 0v-9.32a3.713 3.713 0 00-2.203-3.39zM24 27.139l-2.614-2.614a2.2 2.2 0 00.311-1.126v-.286a5.93 5.93 0 002.303.463 5.93 5.93 0 002.303-.463v.286c0 .405.112.791.311 1.126L24 27.139zm0-4.97a4.563 4.563 0 01-4.557-4.557v-.316a4.16 4.16 0 001.277-.83.703.703 0 00-.954-1.033c-.352.325-.703.535-1.044.624a.126.126 0 01-.019.003.144.144 0 01-.012-.063v-1.391a4.563 4.563 0 014.558-4.558h1.503a4.563 4.563 0 014.557 4.558v.153c0 .023-.014.043-.032.046-4.21.832-6.322-.735-7.034-1.448a.703.703 0 10-.994.995c2.183 2.183 5.369 2.222 7.309 1.99v1.27A4.563 4.563 0 0124 22.169zm-11.321-.048v-1.503a5.211 5.211 0 00-2.39-4.378 2.961 2.961 0 00-2.823-3.84 2.961 2.961 0 00-2.822 3.84 5.21 5.21 0 00-2.39 4.378v1.503A5.21 5.21 0 004.51 26.41v1.546c0 .305-.17.579-.442.715l-2.432 1.216A2.942 2.942 0 000 32.533v6.121a.703.703 0 101.406 0v-5.817l1.146 1.145c.293.293.454.683.454 1.097v3.575a.703.703 0 101.406 0V35.08c0-.79-.307-1.532-.866-2.091l-1.594-1.594-.024-.022c.1-.088.212-.165.336-.227l2.432-1.216c.124-.062.24-.136.349-.217l1.719 1.719v7.224a.703.703 0 101.406 0V31.43l1.719-1.72c.108.082.224.156.349.218l.67.336a.7.7 0 00.944-.315.703.703 0 00-.315-.943l-.67-.335a.796.796 0 01-.443-.716V26.41a5.21 5.21 0 002.255-4.289zm-5.212-8.315a1.553 1.553 0 011.527 1.829 5.195 5.195 0 00-3.052-.001 1.553 1.553 0 011.525-1.828zm0 3.006a3.81 3.81 0 013.806 3.806v.255c-2.928.896-4.672-1.33-4.747-1.428a.703.703 0 00-1.06-.075c-.67.67-1.328.994-1.803 1.15a3.81 3.81 0 013.804-3.708zm0 13.333L5.842 28.52c.047-.181.073-.37.073-.564v-.858c.49.153 1.012.235 1.552.235s1.06-.082 1.551-.235v.858c0 .194.026.383.074.564l-1.625 1.625zm0-4.218a3.81 3.81 0 01-3.806-3.806v-.145c.56-.13 1.392-.429 2.26-1.126.306.29.745.644 1.303.949a5.592 5.592 0 004.043.531 3.81 3.81 0 01-3.8 3.597zm38.898 2.457l-3.935-1.967a.796.796 0 01-.442-.716v-.996a4.45 4.45 0 001.503-3.335v-.8h.048a.703.703 0 00.704-.703v-1.503a4.466 4.466 0 00-4.461-4.461h-1.503a4.466 4.466 0 00-4.46 4.46v1.504a.703.703 0 00.75.701v.802a4.45 4.45 0 001.504 3.335v.996c0 .305-.17.58-.443.716a.703.703 0 10.63 1.257c.124-.062.24-.135.348-.217l1.72 1.72v9.477a.703.703 0 001.405 0v-9.478l1.72-1.72c.108.082.224.156.348.218l3.808 1.904-1.155 1.155a2.939 2.939 0 00-.866 2.091v5.83a.703.703 0 001.406 0v-5.83c0-.414.161-.803.454-1.096l1.094-1.095c.033.128.052.26.052.396v7.625a.703.703 0 001.406 0V31.03a2.942 2.942 0 00-1.635-2.645zm-11.14-9.365v-.655a3.058 3.058 0 013.054-3.055h1.503a3.058 3.058 0 013.054 3.054v.782c-3.056-.165-4.9-1.355-4.919-1.366a.701.701 0 00-.887.087c-.673.673-1.332.997-1.806 1.153zm3.805 8.871l-1.624-1.625c.047-.18.073-.37.073-.564v-.15a4.438 4.438 0 003.103 0v.15c0 .194.026.383.073.564L39.03 27.89zm0-3.466a3.058 3.058 0 01-3.054-3.054v-1.134a5.95 5.95 0 001.65-1.007c.738.384 2.283 1.048 4.459 1.268v.873a3.058 3.058 0 01-3.055 3.054z" fill="#31B045"/></svg>