<svg width="48" height="48" fill="none" xmlns="http://www.w3.org/2000/svg"><g clip-path="url(#clip0)" fill="#31B045"><path d="M18.743 31.207l-4.086-1.816a.8.8 0 01-.475-.731v-1.122a5.955 5.955 0 002.254-4.665v-1.58c.453-.25.752-.732.752-1.273v-.153a5.97 5.97 0 00-5.964-5.964H9.721a5.97 5.97 0 00-5.963 5.964v1.39c0 .476.204.906.56 1.182.061.047.125.088.191.123v.31c0 1.888.882 3.572 2.255 4.666v1.122a.8.8 0 01-.475.73l-4.086 1.817A3.712 3.712 0 000 34.597v9.318a.703.703 0 001.406 0v-9.319a2.3 2.3 0 01.015-.242l1.882 1.883c.293.293.455.683.455 1.097v6.581a.703.703 0 001.406 0v-6.581c0-.79-.308-1.533-.866-2.091l-2.245-2.245a2.28 2.28 0 01.721-.506l4.017-1.786 2.979 2.98v10.23a.703.703 0 101.406 0v-10.23l2.979-2.98 4.017 1.786c.276.122.518.296.72.506l-2.244 2.245a2.938 2.938 0 00-.866 2.091v6.581a.703.703 0 001.406 0v-6.581c0-.414.162-.804.454-1.097l1.883-1.883c.009.08.014.16.014.242v9.32a.703.703 0 001.407 0v-9.32a3.712 3.712 0 00-2.203-3.39zm-8.27 1.193l-2.614-2.614c.199-.335.31-.722.31-1.126v-.286a5.93 5.93 0 002.304.463 5.93 5.93 0 002.303-.463v.286c0 .405.112.791.31 1.126L10.474 32.4zm0-4.97a4.563 4.563 0 01-4.558-4.557v-.316c.44-.174.867-.451 1.277-.83a.703.703 0 00-.953-1.033c-.352.325-.704.535-1.045.624a.112.112 0 01-.018.003.143.143 0 01-.012-.063v-1.391a4.563 4.563 0 014.557-4.558h1.503a4.563 4.563 0 014.558 4.558v.153c0 .023-.014.043-.032.046-4.21.832-6.322-.735-7.034-1.448a.703.703 0 10-.995.995c2.184 2.183 5.37 2.222 7.31 1.99v1.27a4.563 4.563 0 01-4.558 4.557zm32.315-15.782H24.752a.703.703 0 000 1.407h18.036a.703.703 0 100-1.407zm0-3.758H29.26a.703.703 0 000 1.407h13.527a.703.703 0 100-1.406zm-16.534 0h-1.503a.703.703 0 000 1.407h1.503a.703.703 0 000-1.406zm16.534 7.516h-5.26a.703.703 0 000 1.406h5.26a.703.703 0 000-1.406zm-8.268 0h-9.769a.703.703 0 100 1.406h9.77a.703.703 0 000-1.406z"/><path d="M44.291 3.382H23.25a3.713 3.713 0 00-3.71 3.709v10.521a3.713 3.713 0 003.71 3.71h1.658a10.797 10.797 0 01-1.476 2.573 1.446 1.446 0 00-.073 1.684 1.425 1.425 0 001.54.627c4.015-.938 6.355-3.112 7.648-4.885h11.745A3.713 3.713 0 0048 17.612V7.091a3.713 3.713 0 00-3.709-3.71zm2.303 14.23a2.306 2.306 0 01-2.303 2.303H32.182a.703.703 0 00-.58.307c-1.102 1.614-3.214 3.725-7.023 4.615a.06.06 0 01-.018.002.073.073 0 01-.029-.04c-.004-.015-.003-.024.012-.044.91-1.176 1.592-2.5 2.029-3.932a.703.703 0 00-.673-.908h-2.65a2.306 2.306 0 01-2.303-2.303V7.091a2.306 2.306 0 012.303-2.303h21.04a2.306 2.306 0 012.303 2.303v10.521z"/></g><defs><clipPath id="clip0"><path fill="#fff" d="M0 0h48v48H0z"/></clipPath></defs></svg>