<svg width="48" height="48" fill="none" xmlns="http://www.w3.org/2000/svg"><path d="M23.25 19.5V21h-.75a2.625 2.625 0 000 5.25h3a1.125 1.125 0 110 2.25h-4.875V30h2.625v1.5h1.5V30h.75a2.625 2.625 0 000-5.25h-3a1.125 1.125 0 110-2.25h4.875V21H24.75v-1.5h-1.5z" fill="#31B045"/><path d="M42.75 34.5H36l-.75-1v-9.352a10.077 10.077 0 00-7.315-9.691l1.286-4.5A.75.75 0 0028.5 9H24v1.5h3.506l-1.071 3.75H24v1.5h2.924a8.58 8.58 0 016.826 8.398v9.602c0 .114.027.226.077.328a10.981 10.981 0 00-10.284.422H18a3.004 3.004 0 00-2.897 3.785l-2.986-1.367c.048-.113.11-.22.183-.318l1.8-2.4a.75.75 0 00.15-.45V25.5h-1.5v8l-1.65 2.2a3 3 0 00-.345.593l-2.47-1.131a3.2 3.2 0 00-4.15 1.39c-.268.52-.4 1.099-.385 1.683a3.185 3.185 0 001.77 2.864l8.745 4.372a9.803 9.803 0 004.36 1.029H42.75a.75.75 0 00.75-.75v-10.5a.75.75 0 00-.75-.75zm-9 10.5H18.624a8.296 8.296 0 01-3.689-.87L6.19 39.757a1.692 1.692 0 01-.94-1.522c-.012-.336.059-.67.205-.971a1.695 1.695 0 012.204-.739l8.529 3.907a.75.75 0 00.312.068h8.25V39H18a1.5 1.5 0 110-3h5.75a.75.75 0 00.386-.107l.07-.042a9.485 9.485 0 019.12-.35l.424.212V45zM42 45h-6.75v-9H42v9z" fill="#31B045"/><path d="M38.25 43.5a1.5 1.5 0 100-3 1.5 1.5 0 000 3zM6.767 22.003a.75.75 0 00.96.555l2.618-.834 1.85 2.03a.75.75 0 001.11 0l1.85-2.03 2.617.834a.748.748 0 00.96-.555l.588-2.684 2.684-.587a.75.75 0 00.554-.96l-.834-2.618 2.031-1.85a.75.75 0 000-1.109l-2.03-1.85.833-2.617a.75.75 0 00-.555-.96L19.32 6.18l-.586-2.683a.75.75 0 00-.96-.555l-2.618.834-1.85-2.031a.75.75 0 00-1.11 0l-1.85 2.03-2.617-.833a.75.75 0 00-.96.555L6.18 6.18l-2.683.587a.75.75 0 00-.555.96l.834 2.618-2.031 1.85a.75.75 0 000 1.11l2.03 1.85-.833 2.617a.75.75 0 00.555.96l2.684.588.586 2.683zM5.141 14.37l-1.777-1.62 1.777-1.62a.75.75 0 00.21-.782l-.73-2.291 2.35-.514a.75.75 0 00.572-.572l.514-2.35 2.291.73a.75.75 0 00.782-.21l1.62-1.777 1.62 1.777a.75.75 0 00.782.21l2.291-.73.514 2.35a.75.75 0 00.572.572l2.35.514-.73 2.291a.749.749 0 00.21.782l1.777 1.62-1.777 1.62a.75.75 0 00-.21.782l.73 2.291-2.35.514a.75.75 0 00-.572.573l-.514 2.349-2.291-.73a.75.75 0 00-.782.21l-1.62 1.777-1.62-1.777a.75.75 0 00-.782-.21l-2.291.73-.514-2.35a.75.75 0 00-.572-.572l-2.35-.514.73-2.291a.75.75 0 00-.21-.782z" fill="#31B045"/><path d="M15.97 8.47l-7.5 7.5 1.06 1.06 7.5-7.5-1.06-1.06zM9.75 12a2.25 2.25 0 100-4.5 2.25 2.25 0 000 4.5zm0-3a.75.75 0 110 1.5.75.75 0 010-1.5zm4.5 6a2.25 2.25 0 104.5 0 2.25 2.25 0 00-4.5 0zm3 0a.75.75 0 11-1.5 0 .75.75 0 011.5 0z" fill="#31B045"/></svg>