<svg width="48" height="48" fill="none" xmlns="http://www.w3.org/2000/svg"><g clip-path="url(#clip0)" fill="#31B045"><path d="M40.608 15.057l-2.254-2.734a2.418 2.418 0 01-.543-1.313l-.34-3.527a3.861 3.861 0 00-3.467-3.468l-3.527-.34a2.424 2.424 0 01-1.314-.543L26.43.878a3.861 3.861 0 00-4.903 0l-2.734 2.254c-.375.31-.83.497-1.313.544l-3.527.34a3.862 3.862 0 00-3.468 3.467l-.34 3.527a2.424 2.424 0 01-.543 1.313l-2.254 2.734a3.861 3.861 0 000 4.903l2.254 2.734c.31.376.497.83.544 1.314l.34 3.527a3.862 3.862 0 003.467 3.467l2.156.207-5.123 12.24a.927.927 0 00.164.979c.24.27.604.377.95.278l4.445-1.255a.04.04 0 01.047.02l2.225 4.046a.925.925 0 00.864.482.929.929 0 00.814-.572l5.408-12.923c.183-.106.36-.227.527-.365l2.735-2.254c.346-.285.76-.466 1.202-.529l4.898 11.704-3.466-.979a1.459 1.459 0 00-1.68.703l-1.736 3.156-2.3-5.495a.712.712 0 00-1.313.55l2.694 6.436c.14.332.452.55.812.568l.049.001c.34 0 .65-.182.816-.483l2.224-4.046a.041.041 0 01.047-.02l4.444 1.255a.926.926 0 00.951-.278.927.927 0 00.163-.98L31.848 31.21l2.156-.208a3.861 3.861 0 003.467-3.466l.34-3.528a2.42 2.42 0 01.543-1.313l2.254-2.734a3.86 3.86 0 000-4.903zM19.573 45.94l-1.736-3.157a1.458 1.458 0 00-1.68-.702l-3.466.978 4.898-11.703a2.42 2.42 0 011.203.529l2.734 2.254a3.847 3.847 0 002.62.874L19.572 45.94zM39.51 19.055l-2.254 2.734a3.838 3.838 0 00-.863 2.082l-.34 3.527a2.435 2.435 0 01-2.186 2.186l-3.098.299a.412.412 0 00-.036.004l-.393.037a3.84 3.84 0 00-2.082.863l-2.734 2.253a2.434 2.434 0 01-3.092 0l-2.734-2.253a3.837 3.837 0 00-2.083-.863l-.394-.038-.032-.003-3.1-.299a2.435 2.435 0 01-2.187-2.186l-.34-3.527a3.837 3.837 0 00-.863-2.082l-2.253-2.734a2.435 2.435 0 010-3.093l2.253-2.734a3.83 3.83 0 00.863-2.082l.34-3.527a2.435 2.435 0 012.186-2.187l3.527-.34a3.84 3.84 0 002.083-.862l2.734-2.253c.448-.37.997-.554 1.546-.554s1.098.184 1.546.554l2.734 2.253c.595.49 1.315.79 2.082.863l3.527.34a2.435 2.435 0 012.187 2.186l.34 3.527a3.83 3.83 0 00.862 2.082l2.254 2.734a2.436 2.436 0 010 3.093z"/><path d="M23.978 6.39c-.476 0-.954.03-1.423.09a.712.712 0 00.18 1.412 9.806 9.806 0 011.243-.079c5.346 0 9.695 4.35 9.695 9.696s-4.35 9.695-9.695 9.695c-5.347 0-9.696-4.35-9.696-9.695a9.715 9.715 0 015.728-8.85.712.712 0 10-.583-1.299 11.14 11.14 0 00-6.569 10.149c0 6.13 4.988 11.119 11.12 11.119 6.13 0 11.119-4.988 11.119-11.12 0-6.13-4.988-11.118-11.12-11.118z"/><path d="M16.909 16.684a2.18 2.18 0 000 3.078l3.108 3.11c.412.41.958.637 1.54.637.58 0 1.128-.227 1.539-.638l6.786-6.786a2.18 2.18 0 000-3.079 2.18 2.18 0 00-3.078 0l-5.247 5.248-1.57-1.57a2.18 2.18 0 00-3.078 0zm4.648 3.288c.188 0 .37-.075.503-.208l5.75-5.751a.754.754 0 011.065 1.065l-6.786 6.787a.748.748 0 01-.532.22.748.748 0 01-.533-.22l-3.11-3.11a.755.755 0 01.534-1.285.75.75 0 01.532.22l2.073 2.074a.712.712 0 00.503.208z"/></g><defs><clipPath id="clip0"><path fill="#fff" d="M0 0h48v48H0z"/></clipPath></defs></svg>