<svg width="48" height="48" fill="none" xmlns="http://www.w3.org/2000/svg"><path d="M3.644 13.989h7.416a.703.703 0 100-1.407H3.644a.703.703 0 100 1.406zm7.162 3.384h-2.93a.703.703 0 100 1.406h2.93a.703.703 0 100-1.406zM.703 22.25h7.173a.703.703 0 000-1.407H.703a.703.703 0 100 1.406zm11.06 12.465a.703.703 0 00-.703-.704H3.644a.703.703 0 100 1.407h7.416a.703.703 0 00.703-.703zm-.957-5.495h-2.93a.703.703 0 100 1.407h2.93a.703.703 0 000-1.407zM8.58 26.454a.703.703 0 00-.704-.704H.703a.703.703 0 100 1.407h7.173a.703.703 0 00.703-.703zm21.376-10.908a.703.703 0 00.703-.703V13.77a.703.703 0 10-1.406 0v1.073c0 .389.314.703.703.703zm7.731.724a.703.703 0 00-.995 0l-.759.758a.703.703 0 10.995.994l.759-.758a.703.703 0 000-.995zm1.425 7.027a.703.703 0 100 1.406h1.074a.703.703 0 100-1.406h-1.074zm-2.184 6.68a.703.703 0 00-.995.995l.76.759a.703.703 0 00.994-.995l-.76-.759zm-7.675 3.18v1.073a.703.703 0 101.406 0v-1.073a.703.703 0 10-1.406 0zm-6.269-3.18l-.759.76a.703.703 0 00.994.994l.76-.76a.703.703 0 00-.995-.994zm-3.258-6.68a.703.703 0 100 1.406H20.8a.703.703 0 100-1.406h-1.073zm4.252-6.269l-.759-.759a.703.703 0 00-.994.995l.759.758a.703.703 0 10.994-.994zM33.737 24a.703.703 0 00-.703-.703h-2.375v-5.22a.703.703 0 10-1.406 0V24c0 .388.314.703.703.703h3.078a.703.703 0 00.703-.703z" fill="#31B045"/><path d="M43.288 23.884a.703.703 0 00.66-.744C43.5 15.76 37.353 9.98 29.955 9.98c-7.73 0-14.019 6.29-14.019 14.02 0 7.729 6.289 14.018 14.019 14.018 6.925 0 12.834-5.074 13.862-11.921a.703.703 0 00-1.39-.209c-.924 6.151-6.236 10.724-12.472 10.724C23 36.613 17.343 30.955 17.343 24c0-6.954 5.658-12.612 12.613-12.612 6.656 0 12.185 5.2 12.588 11.837a.704.704 0 00.744.659z" fill="#31B045"/><path d="M29.956 5.956a18.05 18.05 0 00-7.127 1.472H10.423a.703.703 0 100 1.407h9.76a18.027 18.027 0 00-3.605 3.056.703.703 0 001.042.944 16.674 16.674 0 0112.336-5.473c9.174 0 16.638 7.464 16.638 16.638 0 9.174-7.464 16.638-16.638 16.638-9.174 0-16.638-7.464-16.638-16.638 0-3.213.918-6.33 2.654-9.018a.703.703 0 10-1.181-.763A17.979 17.979 0 0011.91 24c0 6.353 3.301 11.95 8.277 15.165h-9.765a.703.703 0 000 1.407H22.82a17.94 17.94 0 007.136 1.472C39.906 42.044 48 33.95 48 24c0-9.95-8.094-18.044-18.044-18.044z" fill="#31B045"/></svg>