<svg width="48" height="48" fill="none" xmlns="http://www.w3.org/2000/svg"><g clip-path="url(#clip0)"><path d="M47.15 20.563a3.438 3.438 0 00-2.13-1.465 3.464 3.464 0 00-.177-3.52 3.45 3.45 0 00-2.129-1.465 3.47 3.47 0 00-.179-3.522 3.435 3.435 0 00-2.129-1.466 3.465 3.465 0 00-.178-3.52 3.466 3.466 0 00-4.797-.975l-3.446 2.282a21.534 21.534 0 00-5.819-1.969 16.003 16.003 0 00-2.22-2.686L22.52.875a3.138 3.138 0 00-3.893-.361 3.123 3.123 0 00-.879 4.323l.11.171A21.72 21.72 0 00.673 29.272c1.044 7.596 6.103 14.141 13.204 17.083A21.575 21.575 0 0022.178 48c4.555 0 8.915-1.395 12.609-4.033a21.653 21.653 0 007.819-10.304.746.746 0 10-1.404-.506 20.165 20.165 0 01-7.283 9.595 20.08 20.08 0 01-11.74 3.756 20.13 20.13 0 01-6.384-1.03l6.072-4.02.001-.001h.001l5.047-3.343c.453-.3.763-.759.871-1.292a2.02 2.02 0 00-.297-1.529l-.067-.101.98-.65a3.332 3.332 0 012.37-.511 4.812 4.812 0 003.429-.742l8.131-5.385a20.276 20.276 0 01-.275 2.097.746.746 0 101.468.272c.207-1.113.326-2.253.356-3.394l2.292-1.518a3.438 3.438 0 001.48-2.197 3.44 3.44 0 00-.505-2.6zM30.535 7.872l-2.28 1.51-.449-1.21c-.188-.504-.402-1-.64-1.483a20.05 20.05 0 013.37 1.183zM6.901 13.046A20.22 20.22 0 0118.572 6.39a9.22 9.22 0 01.466 5.585l-1.82 7.861a2.017 2.017 0 00-1.076-.6 2.02 2.02 0 00-1.53.297L9.46 22.947h-.001L2.022 27.87A20.213 20.213 0 016.9 13.045zm19.425 23.479a.54.54 0 01-.233.345l-4.433 2.935-8.227-12.27a.746.746 0 00-1.24.832l8.223 12.262-6.328 4.19C7.8 42.07 3.3 36.262 2.218 29.504l7.443-4.913.857 1.278a.746.746 0 101.24-.831l-.85-1.269 4.53-2.99a.542.542 0 01.752.154l10.056 15.185c.08.12.108.266.08.408zm19.867-13.658c-.105.515-.404.96-.843 1.25l-2.619 1.734-.003.002-9.35 6.192a3.323 3.323 0 01-2.368.512 4.815 4.815 0 00-3.43.741l-.98.65-8.237-12.438 2.13-9.197a10.723 10.723 0 00-1.5-8.3 1.629 1.629 0 01.458-2.255 1.636 1.636 0 012.03.189l1.426 1.382a14.583 14.583 0 013.5 5.363l.776 2.091.004.011.006.015a.726.726 0 00.067.127.746.746 0 001.035.21l7.96-5.271c.905-.6 2.13-.351 2.729.554.6.905.35 2.13-.555 2.729l-.69.458h-.001l-1.542 1.021-.005.004-.025.018a.745.745 0 00.855 1.223l1.542-1.022c.438-.29.963-.392 1.478-.287.516.104.96.404 1.25.842.29.439.393.964.288 1.48a1.962 1.962 0 01-.842 1.25l-2.234 1.479a.746.746 0 10.824 1.244l.346-.229 1.196-.792c.906-.6 2.13-.35 2.73.554.599.906.35 2.13-.555 2.73l-1.116.738-.017.012-1.1.729a.746.746 0 10.824 1.244l.345-.229 1.197-.792c.438-.29.963-.393 1.479-.288.515.105.96.404 1.25.843.29.438.392.963.287 1.479z" fill="#31B045"/></g><defs><clipPath id="clip0"><path fill="#fff" d="M0 0h48v48H0z"/></clipPath></defs></svg>