<svg width="48" height="48" fill="none" xmlns="http://www.w3.org/2000/svg"><g clip-path="url(#clip0)" fill="#31B045"><path d="M45.712 28.115h-.719v-6.47c0-1.024-.51-1.931-1.288-2.482v-.881a2.32 2.32 0 00-2.318-2.318h-.536l2.052-3.011a2.218 2.218 0 00-.583-3.078L28.395.385a2.2 2.2 0 00-1.66-.346 2.2 2.2 0 00-1.418.93L13.298 18.605H9.954l.807-8.168a.242.242 0 01.152-.204 5.2 5.2 0 002.537-2.06.24.24 0 01.227-.107l5.246.518a.684.684 0 00.134-1.361l-5.245-.519a1.6 1.6 0 00-1.516.734 3.823 3.823 0 01-1.865 1.515c-.576.217-.97.734-1.032 1.35l-.82 8.302h-.872l1.276-12.92a.848.848 0 01.927-.76l10.6 1.048a.685.685 0 00.135-1.361l-10.6-1.047A2.218 2.218 0 007.621 5.55L6.593 15.964H4.842a2.32 2.32 0 00-2.318 2.318v.6a3.044 3.044 0 00-1.773 2.763V44.96A3.043 3.043 0 003.79 48h38.162a3.043 3.043 0 003.04-3.04v-6.47h.719a1.54 1.54 0 001.537-1.538v-7.3a1.54 1.54 0 00-1.537-1.537zm-4.325-10.783a.95.95 0 01.95.95v.348a3.036 3.036 0 00-.384-.025h-2.902l.868-1.273h1.468zM26.447 1.74a.842.842 0 01.703-.37.84.84 0 01.475.147l13.925 9.489a.848.848 0 01.223 1.177l-4.377 6.423h-1.05l2.146-3.149c.348-.51.376-1.16.074-1.696a3.822 3.822 0 01-.458-2.36 1.6 1.6 0 00-.692-1.535l-7.219-4.919a1.6 1.6 0 00-1.681-.082 3.824 3.824 0 01-2.364.436 1.62 1.62 0 00-1.551.69l-8.597 12.615h-1.05L26.448 1.739zm.302 11.614a5.644 5.644 0 00-5.623 5.252h-3.467L25.731 6.76a.244.244 0 01.231-.105 5.2 5.2 0 003.215-.594.241.241 0 01.25.016l7.219 4.919a.24.24 0 01.105.227 5.198 5.198 0 00.624 3.209.243.243 0 01-.014.254l-2.67 3.919h-2.32a5.644 5.644 0 00-5.622-5.252zM31 18.605h-8.503a4.275 4.275 0 014.252-3.883A4.275 4.275 0 0131 18.605zm-27.108-.323a.95.95 0 01.95-.95h1.616l-.126 1.273h-2.44v-.323zm-1.773 3.363c0-.922.75-1.672 1.672-1.672h38.162c.922 0 1.672.75 1.672 1.672v1.898H2.12v-1.898zM43.625 44.96c0 .922-.75 1.672-1.672 1.672H3.791c-.922 0-1.672-.75-1.672-1.672v-1.898h3.688a.684.684 0 100-1.368H2.119V24.911h41.506v3.204h-6.503a5.193 5.193 0 00-4.666 2.923l-.009.017-.02.045c-.1.213-.188.434-.259.662v.002a5.193 5.193 0 004.954 6.727h6.503v3.203H10.186a.684.684 0 100 1.368h33.44v1.898zm2.256-8.008a.17.17 0 01-.17.17h-8.589a3.823 3.823 0 01-3.587-5.131 3.848 3.848 0 01.23-.508c.647-1.19 1.91-2 3.357-2h8.59a.17.17 0 01.17.17v7.3z"/><path d="M37.282 30.528a2.778 2.778 0 00-2.775 2.775 2.778 2.778 0 002.775 2.775 2.778 2.778 0 002.775-2.775 2.778 2.778 0 00-2.775-2.775zm0 4.182a1.409 1.409 0 01-1.407-1.407 1.409 1.409 0 012.815 0 1.41 1.41 0 01-1.408 1.407z"/></g><defs><clipPath id="clip0"><path fill="#fff" d="M0 0h48v48H0z"/></clipPath></defs></svg>